<mxfile host="app.diagrams.net" modified="2021-05-31T15:20:52.059Z" agent="5.0 (Windows NT 10.0; Win64; x64) AppleWebKit/537.36 (KHTML, like Gecko) Chrome/91.0.4472.77 Safari/537.36" etag="YmC93C_hpiyWFGVrW2vz" version="14.7.3" type="github">
  <diagram id="PXAswhtAmQBYjqmkOcDG" name="Page-1">
    <mxGraphModel dx="2048" dy="654" grid="1" gridSize="10" guides="1" tooltips="1" connect="1" arrows="1" fold="1" page="1" pageScale="1" pageWidth="827" pageHeight="1169" math="0" shadow="0">
      <root>
        <mxCell id="0" />
        <mxCell id="1" parent="0" />
        <mxCell id="x5ubMdCJ9VFF1x8MkFd7-3" style="edgeStyle=orthogonalEdgeStyle;rounded=0;orthogonalLoop=1;jettySize=auto;html=1;exitX=1;exitY=0.5;exitDx=0;exitDy=0;" parent="1" source="x5ubMdCJ9VFF1x8MkFd7-1" target="x5ubMdCJ9VFF1x8MkFd7-2" edge="1">
          <mxGeometry relative="1" as="geometry" />
        </mxCell>
        <mxCell id="x5ubMdCJ9VFF1x8MkFd7-1" value="window chat client side" style="text;html=1;strokeColor=none;fillColor=none;align=center;verticalAlign=middle;whiteSpace=wrap;rounded=0;" parent="1" vertex="1">
          <mxGeometry x="160" y="40" width="90" height="20" as="geometry" />
        </mxCell>
        <mxCell id="x5ubMdCJ9VFF1x8MkFd7-5" value="" style="edgeStyle=orthogonalEdgeStyle;rounded=0;orthogonalLoop=1;jettySize=auto;html=1;" parent="1" source="x5ubMdCJ9VFF1x8MkFd7-2" target="x5ubMdCJ9VFF1x8MkFd7-4" edge="1">
          <mxGeometry relative="1" as="geometry" />
        </mxCell>
        <mxCell id="x5ubMdCJ9VFF1x8MkFd7-2" value="chat window" style="text;html=1;strokeColor=none;fillColor=none;align=center;verticalAlign=middle;whiteSpace=wrap;rounded=0;" parent="1" vertex="1">
          <mxGeometry x="310" y="40" width="90" height="20" as="geometry" />
        </mxCell>
        <mxCell id="x5ubMdCJ9VFF1x8MkFd7-6" style="edgeStyle=orthogonalEdgeStyle;rounded=0;orthogonalLoop=1;jettySize=auto;html=1;exitX=1;exitY=0.75;exitDx=0;exitDy=0;" parent="1" source="x5ubMdCJ9VFF1x8MkFd7-4" edge="1">
          <mxGeometry relative="1" as="geometry">
            <mxPoint x="440" y="105" as="targetPoint" />
          </mxGeometry>
        </mxCell>
        <mxCell id="x5ubMdCJ9VFF1x8MkFd7-9" value="" style="edgeStyle=orthogonalEdgeStyle;rounded=0;orthogonalLoop=1;jettySize=auto;html=1;" parent="1" source="x5ubMdCJ9VFF1x8MkFd7-4" edge="1">
          <mxGeometry relative="1" as="geometry">
            <mxPoint x="400" y="190" as="targetPoint" />
          </mxGeometry>
        </mxCell>
        <mxCell id="x5ubMdCJ9VFF1x8MkFd7-10" style="edgeStyle=orthogonalEdgeStyle;rounded=0;orthogonalLoop=1;jettySize=auto;html=1;" parent="1" source="x5ubMdCJ9VFF1x8MkFd7-4" edge="1">
          <mxGeometry relative="1" as="geometry">
            <mxPoint x="460" y="60" as="targetPoint" />
            <Array as="points">
              <mxPoint x="355" y="60" />
            </Array>
          </mxGeometry>
        </mxCell>
        <mxCell id="x5ubMdCJ9VFF1x8MkFd7-4" value="random user" style="text;html=1;strokeColor=none;fillColor=none;align=center;verticalAlign=middle;whiteSpace=wrap;rounded=0;" parent="1" vertex="1">
          <mxGeometry x="310" y="90" width="90" height="20" as="geometry" />
        </mxCell>
        <mxCell id="x5ubMdCJ9VFF1x8MkFd7-7" value="when a user wil open the website&lt;br&gt;users ip will be traced and stored as a&amp;nbsp;&lt;br&gt;&lt;b&gt;unique user&lt;/b&gt;" style="text;html=1;align=center;verticalAlign=middle;resizable=0;points=[];autosize=1;strokeColor=none;" parent="1" vertex="1">
          <mxGeometry x="455" y="40" width="220" height="50" as="geometry" />
        </mxCell>
        <mxCell id="x5ubMdCJ9VFF1x8MkFd7-11" value="featre too check if the user is online&amp;nbsp;&lt;br&gt;and in which page , like title of the page&amp;nbsp;&lt;br&gt;or the url" style="text;html=1;align=center;verticalAlign=middle;resizable=0;points=[];autosize=1;strokeColor=none;" parent="1" vertex="1">
          <mxGeometry x="440" y="100" width="230" height="50" as="geometry" />
        </mxCell>
        <mxCell id="x5ubMdCJ9VFF1x8MkFd7-14" style="edgeStyle=orthogonalEdgeStyle;rounded=0;orthogonalLoop=1;jettySize=auto;html=1;" parent="1" source="x5ubMdCJ9VFF1x8MkFd7-12" target="x5ubMdCJ9VFF1x8MkFd7-13" edge="1">
          <mxGeometry relative="1" as="geometry" />
        </mxCell>
        <mxCell id="x5ubMdCJ9VFF1x8MkFd7-15" style="edgeStyle=orthogonalEdgeStyle;rounded=0;orthogonalLoop=1;jettySize=auto;html=1;" parent="1" source="x5ubMdCJ9VFF1x8MkFd7-12" edge="1">
          <mxGeometry relative="1" as="geometry">
            <mxPoint x="350" y="220" as="targetPoint" />
          </mxGeometry>
        </mxCell>
        <mxCell id="x5ubMdCJ9VFF1x8MkFd7-12" value="if the ip is unque a pop up msg will appear" style="text;html=1;align=center;verticalAlign=middle;resizable=0;points=[];autosize=1;strokeColor=none;" parent="1" vertex="1">
          <mxGeometry x="410" y="180" width="240" height="20" as="geometry" />
        </mxCell>
        <mxCell id="x5ubMdCJ9VFF1x8MkFd7-13" value="else:&lt;br&gt;donot shw popup and when clicked&amp;nbsp;&lt;br&gt;the window will check with previous chats if not yet&amp;nbsp;&lt;br&gt;archved by the admin" style="text;html=1;align=center;verticalAlign=middle;resizable=0;points=[];autosize=1;strokeColor=none;" parent="1" vertex="1">
          <mxGeometry x="520" y="230" width="290" height="60" as="geometry" />
        </mxCell>
        <mxCell id="x5ubMdCJ9VFF1x8MkFd7-16" value="display all the messages&lt;br&gt;by unque id&lt;br&gt;" style="text;html=1;align=center;verticalAlign=middle;resizable=0;points=[];autosize=1;strokeColor=none;" parent="1" vertex="1">
          <mxGeometry x="285" y="225" width="150" height="30" as="geometry" />
        </mxCell>
        <mxCell id="x5ubMdCJ9VFF1x8MkFd7-19" value="" style="edgeStyle=orthogonalEdgeStyle;rounded=0;orthogonalLoop=1;jettySize=auto;html=1;" parent="1" source="x5ubMdCJ9VFF1x8MkFd7-18" target="x5ubMdCJ9VFF1x8MkFd7-11" edge="1">
          <mxGeometry relative="1" as="geometry" />
        </mxCell>
        <mxCell id="x5ubMdCJ9VFF1x8MkFd7-18" value="&lt;a href=&quot;https://dev.to/nialljoemaher/detecting-if-a-user-is-online-offline-with-javascript-3bcc&quot;&gt;https://dev.to/nialljoemaher/detecting-if-a-user-is-online-offline-with-javascript-3bcc&lt;/a&gt;" style="text;html=1;align=center;verticalAlign=middle;resizable=0;points=[];autosize=1;strokeColor=none;" parent="1" vertex="1">
          <mxGeometry x="730" y="115" width="450" height="20" as="geometry" />
        </mxCell>
        <mxCell id="x5ubMdCJ9VFF1x8MkFd7-20" value="" style="rounded=0;whiteSpace=wrap;html=1;" parent="1" vertex="1">
          <mxGeometry x="160" y="180" width="120" height="210" as="geometry" />
        </mxCell>
        <mxCell id="x5ubMdCJ9VFF1x8MkFd7-21" value="" style="rounded=1;whiteSpace=wrap;html=1;" parent="1" vertex="1">
          <mxGeometry x="160" y="370" width="120" height="20" as="geometry" />
        </mxCell>
        <mxCell id="x5ubMdCJ9VFF1x8MkFd7-26" style="edgeStyle=orthogonalEdgeStyle;rounded=0;orthogonalLoop=1;jettySize=auto;html=1;" parent="1" source="x5ubMdCJ9VFF1x8MkFd7-22" edge="1">
          <mxGeometry relative="1" as="geometry">
            <mxPoint x="290" y="375" as="targetPoint" />
          </mxGeometry>
        </mxCell>
        <mxCell id="x5ubMdCJ9VFF1x8MkFd7-22" value="" style="ellipse;whiteSpace=wrap;html=1;" parent="1" vertex="1">
          <mxGeometry x="245" y="360" width="35" height="30" as="geometry" />
        </mxCell>
        <mxCell id="x5ubMdCJ9VFF1x8MkFd7-23" value="" style="ellipse;whiteSpace=wrap;html=1;" parent="1" vertex="1">
          <mxGeometry x="160" y="180" width="30" height="30" as="geometry" />
        </mxCell>
        <mxCell id="x5ubMdCJ9VFF1x8MkFd7-25" style="edgeStyle=orthogonalEdgeStyle;rounded=0;orthogonalLoop=1;jettySize=auto;html=1;entryX=0;entryY=0.5;entryDx=0;entryDy=0;" parent="1" source="x5ubMdCJ9VFF1x8MkFd7-24" target="x5ubMdCJ9VFF1x8MkFd7-23" edge="1">
          <mxGeometry relative="1" as="geometry" />
        </mxCell>
        <mxCell id="x5ubMdCJ9VFF1x8MkFd7-24" value="service desk image" style="text;html=1;strokeColor=none;fillColor=none;align=center;verticalAlign=middle;whiteSpace=wrap;rounded=0;" parent="1" vertex="1">
          <mxGeometry x="50" y="180" width="30" height="20" as="geometry" />
        </mxCell>
        <mxCell id="x5ubMdCJ9VFF1x8MkFd7-28" style="edgeStyle=orthogonalEdgeStyle;rounded=0;orthogonalLoop=1;jettySize=auto;html=1;" parent="1" source="x5ubMdCJ9VFF1x8MkFd7-27" edge="1">
          <mxGeometry relative="1" as="geometry">
            <mxPoint x="420" y="375" as="targetPoint" />
          </mxGeometry>
        </mxCell>
        <mxCell id="x5ubMdCJ9VFF1x8MkFd7-27" value="burtton send" style="text;html=1;align=center;verticalAlign=middle;resizable=0;points=[];autosize=1;strokeColor=none;" parent="1" vertex="1">
          <mxGeometry x="290" y="365" width="80" height="20" as="geometry" />
        </mxCell>
        <mxCell id="x5ubMdCJ9VFF1x8MkFd7-29" value="forrmat will be&amp;nbsp; {&lt;br&gt;&lt;br&gt;unique id,&lt;br&gt;current date time,&lt;br&gt;sent,&lt;br&gt;message,&lt;br&gt;usertype.&lt;br&gt;&lt;br&gt;}" style="text;html=1;align=center;verticalAlign=middle;resizable=0;points=[];autosize=1;strokeColor=none;" parent="1" vertex="1">
          <mxGeometry x="420" y="315" width="110" height="130" as="geometry" />
        </mxCell>
        <mxCell id="x5ubMdCJ9VFF1x8MkFd7-34" value="" style="edgeStyle=orthogonalEdgeStyle;rounded=0;orthogonalLoop=1;jettySize=auto;html=1;" parent="1" source="x5ubMdCJ9VFF1x8MkFd7-31" target="x5ubMdCJ9VFF1x8MkFd7-33" edge="1">
          <mxGeometry relative="1" as="geometry" />
        </mxCell>
        <mxCell id="x5ubMdCJ9VFF1x8MkFd7-31" value="fetch window button&amp;nbsp;&lt;br&gt;from database&lt;br&gt;when opened from first time&lt;br&gt;with limit and latest first&lt;br&gt;" style="text;html=1;align=center;verticalAlign=middle;resizable=0;points=[];autosize=1;strokeColor=none;" parent="1" vertex="1">
          <mxGeometry x="-50" y="240" width="160" height="60" as="geometry" />
        </mxCell>
        <mxCell id="x5ubMdCJ9VFF1x8MkFd7-32" value="" style="edgeStyle=orthogonalEdgeStyle;rounded=0;orthogonalLoop=1;jettySize=auto;html=1;endArrow=none;" parent="1" source="x5ubMdCJ9VFF1x8MkFd7-20" target="x5ubMdCJ9VFF1x8MkFd7-31" edge="1">
          <mxGeometry relative="1" as="geometry">
            <mxPoint x="80" y="285" as="targetPoint" />
            <mxPoint x="160" y="285" as="sourcePoint" />
          </mxGeometry>
        </mxCell>
        <mxCell id="x5ubMdCJ9VFF1x8MkFd7-33" value="1. default message&lt;br&gt;1.1. fetch query {&lt;br&gt;usertype,&lt;br&gt;unique id&amp;nbsp; user,&lt;br&gt;date of messages,&lt;br&gt;messages" style="text;html=1;align=center;verticalAlign=middle;resizable=0;points=[];autosize=1;strokeColor=none;" parent="1" vertex="1">
          <mxGeometry x="-30" y="310" width="120" height="90" as="geometry" />
        </mxCell>
        <mxCell id="0ZScGNwdOx_S5Zb7-eou-2" value="&lt;font style=&quot;font-size: 25px&quot;&gt;Database schema&lt;/font&gt;" style="text;html=1;strokeColor=none;fillColor=none;align=center;verticalAlign=middle;whiteSpace=wrap;rounded=0;" vertex="1" parent="1">
          <mxGeometry x="-600" y="70" width="260" height="20" as="geometry" />
        </mxCell>
        <mxCell id="0ZScGNwdOx_S5Zb7-eou-3" value="" style="shape=cylinder3;whiteSpace=wrap;html=1;boundedLbl=1;backgroundOutline=1;size=15;" vertex="1" parent="1">
          <mxGeometry x="-600" y="110" width="310" height="320" as="geometry" />
        </mxCell>
        <mxCell id="0ZScGNwdOx_S5Zb7-eou-4" value="unique id" style="text;html=1;strokeColor=none;fillColor=none;align=center;verticalAlign=middle;whiteSpace=wrap;rounded=0;" vertex="1" parent="1">
          <mxGeometry x="-564" y="160" width="70" height="20" as="geometry" />
        </mxCell>
        <mxCell id="0ZScGNwdOx_S5Zb7-eou-5" value="main user" style="text;html=1;strokeColor=none;fillColor=none;align=center;verticalAlign=middle;whiteSpace=wrap;rounded=0;" vertex="1" parent="1">
          <mxGeometry x="-494" y="115" width="80" height="20" as="geometry" />
        </mxCell>
        <mxCell id="0ZScGNwdOx_S5Zb7-eou-7" value="unique id" style="text;html=1;strokeColor=none;fillColor=none;align=center;verticalAlign=middle;whiteSpace=wrap;rounded=0;" vertex="1" parent="1">
          <mxGeometry x="-564" y="190" width="70" height="20" as="geometry" />
        </mxCell>
        <mxCell id="0ZScGNwdOx_S5Zb7-eou-8" value="&amp;nbsp;" style="text;html=1;align=center;verticalAlign=middle;resizable=0;points=[];autosize=1;strokeColor=none;" vertex="1" parent="1">
          <mxGeometry x="-710" y="240" width="20" height="20" as="geometry" />
        </mxCell>
      </root>
    </mxGraphModel>
  </diagram>
</mxfile>
